<svg preserveAspectRatio="none" width="100%" height="100%" overflow="visible" style="display: block;" viewBox="0 0 48 48" fill="none" xmlns="http://www.w3.org/2000/svg">
<g id="Frame 15">
<rect width="48" height="48" rx="24" fill="var(--fill-0, #F9E5B1)"/>
<path id="Arrow 1" d="M16 22.5C15.1716 22.5 14.5 23.1716 14.5 24C14.5 24.8284 15.1716 25.5 16 25.5V24V22.5ZM33.0607 25.0607C33.6464 24.4749 33.6464 23.5251 33.0607 22.9393L23.5147 13.3934C22.9289 12.8076 21.9792 12.8076 21.3934 13.3934C20.8076 13.9792 20.8076 14.9289 21.3934 15.5147L29.8787 24L21.3934 32.4853C20.8076 33.0711 20.8076 34.0208 21.3934 34.6066C21.9792 35.1924 22.9289 35.1924 23.5147 34.6066L33.0607 25.0607ZM16 24V25.5H32V24V22.5H16V24Z" fill="var(--stroke-0, #454F6E)"/>
</g>
</svg>
