<svg preserveAspectRatio="none" width="100%" height="100%" overflow="visible" style="display: block;" viewBox="0 0 70.0541 72" fill="none" xmlns="http://www.w3.org/2000/svg">
<g id="Group 14">
<g id="Ellipse 1">
<mask id="path-1-inside-1_0_20" fill="white">
<ellipse cx="31.3846" cy="30.5788" rx="31.3846" ry="30.5788" transform="matrix(-0.154814 -0.987944 0.986575 -0.163307 9.7173 72)"/>
</mask>
<path d="M30.168 4.99374C33.4154 4.72524 36.6469 4.98116 39.719 5.72992C52.1434 8.67092 61.0964 19.738 62.2353 31.4962C64.1725 46.2785 53.3935 61.0287 39.2663 63.0545C25.2347 65.6898 10.4947 55.1638 7.81825 40.5038C5.30768 28.9727 10.4271 15.5762 21.3249 8.77468C24.0129 7.07245 27.0028 5.78672 30.168 4.99374C26.9211 5.25934 23.6794 6.07478 20.6221 7.43137C8.21055 12.7327 0.00290869 27.3082 1.8988 41.4837C3.47545 59.3973 21.9161 74.48 40.5048 70.958C40.5048 70.958 40.5048 70.958 40.5048 70.958C59.2294 68.3036 72.1301 48.0329 68.1548 30.5163C65.6244 16.4459 53.3793 5.25592 39.9758 4.22776C36.6588 3.92632 33.3318 4.19818 30.168 4.99374Z" fill="var(--stroke-0, #F6F4F0)" mask="url(#path-1-inside-1_0_20)"/>
</g>
<path id="Line 1" d="M28.8613 60.9243C29.4818 61.0662 30.0986 61.1912 30.727 61.2982C36.3253 62.2614 42.4387 61.7779 47.8209 58.9491C53.2218 56.1941 57.3098 50.8234 58.6433 45.0918C58.8035 44.4492 58.928 43.8217 59.0345 43.1715C59.0345 43.1715 59.0345 43.1715 59.0345 43.1715C58.6827 43.7256 58.3309 44.2467 57.9626 44.7734C54.6818 49.4804 50.6532 52.9466 46.039 55.352C41.424 57.7777 36.2349 59.3036 30.7166 60.5292C30.1002 60.6649 29.487 60.7964 28.8613 60.9243Z" fill="var(--stroke-0, #F6F4F0)"/>
</g>
</svg>
