<svg preserveAspectRatio="none" width="100%" height="100%" overflow="visible" style="display: block;" viewBox="0 0 77.748 77.748" fill="none" xmlns="http://www.w3.org/2000/svg">
<g id="Group 7">
<g id="Ellipse 1">
<mask id="path-1-inside-1_0_14" fill="white">
<circle cx="38.8741" cy="38.8739" r="33.9131" transform="rotate(-99.1492 38.8741 38.8739)"/>
</mask>
<path d="M33.4817 5.39229C37.0357 5.08882 40.584 5.33493 43.9775 6.10671C57.6828 9.09904 68.0436 21.0029 69.3938 33.9585C71.6602 50.2581 59.3497 66.2343 43.6304 68.4064C28.0241 71.2794 11.3201 59.9762 8.3543 43.7893C5.56862 31.0649 11.668 16.51 23.7409 9.36593C26.7205 7.56774 30.0121 6.22002 33.4817 5.39229C29.928 5.6931 26.3895 6.56857 23.0476 8.01327C9.51183 13.6184 0.244587 29.2596 2.43063 44.7433C4.3422 64.3648 24.9798 80.0435 44.9025 76.3046C44.9025 76.3046 44.9025 76.3046 44.9025 76.3046C64.9917 73.5993 79.6631 52.2339 75.3175 33.0045C72.5316 17.6174 58.8222 5.67667 44.2111 4.60477C40.5845 4.28238 36.9501 4.56216 33.4817 5.39229Z" fill="var(--stroke-0, #F6F4F0)" mask="url(#path-1-inside-1_0_14)"/>
</g>
<path id="Line 1" d="M32.0303 65.7879C32.7216 65.9288 33.4084 66.0519 34.1073 66.1563C40.3367 67.0956 47.0795 66.5205 53.0029 63.489C58.9456 60.5338 63.469 54.8391 65.049 48.6822C65.2372 47.9923 65.3869 47.3175 65.5174 46.6177C65.5174 46.6177 65.5174 46.6177 65.5174 46.6177C65.1385 47.2204 64.7587 47.788 64.3598 48.3618C60.8096 53.4889 56.3352 57.3141 51.178 59.9295C46.021 62.5687 40.2195 64.1729 34.0902 65.3965C33.4055 65.5319 32.7245 65.6621 32.0303 65.7879Z" fill="var(--stroke-0, #F6F4F0)"/>
</g>
</svg>
