<svg xmlns="http://www.w3.org/2000/svg" viewBox="0 1280 1440 80" width="1440" height="80" preserveAspectRatio="none"><rect x="-120" y="1316.2" width="1680" height="45.8" fill="#FBECC7"/><path d="M339.871 1303.59C339.446 1304.45 344.546 1310.94 344.546 1311.38C356.447 1304.45 370.756 1302.72 376.423 1302.72C390.363 1294.07 400.649 1299.12 404.049 1302.72C417.65 1295.8 418.925 1307.05 440.176 1305.75C457.177 1310.25 471.061 1307.34 475.877 1305.32C481.998 1312.71 492.595 1311.86 497.128 1310.51C524.67 1296.32 534.672 1299.7 536.23 1303.16C544.731 1298.83 552.381 1313.54 557.906 1315.27C563.432 1317 565.982 1309.21 566.407 1309.21C566.832 1309.21 572.357 1311.38 580.857 1313.11C587.658 1314.49 603.242 1311.09 610.184 1309.21C619.364 1312.33 646.027 1310.51 658.211 1309.21C667.987 1312.67 661.186 1313.54 684.987 1307.92C708.789 1302.29 703.688 1309.65 712.189 1306.62C718.989 1304.2 732.023 1305.03 737.69 1305.75C739.248 1304.6 743.045 1302.21 745.765 1301.86C748.485 1301.51 750.865 1302.58 751.716 1303.16C751.716 1301.43 755.399 1298.69 757.241 1297.53C778.917 1293.64 797.618 1300.56 798.468 1300.56C799.318 1300.56 798.468 1301.86 804.843 1298.83C811.218 1295.8 815.044 1303.16 815.469 1303.16C828.219 1296.67 831.619 1304.89 834.169 1307.05C836.72 1309.21 849.045 1311.81 854.57 1314.4C860.096 1317 868.171 1326.09 872.846 1327.82C876.586 1329.2 896.222 1328.1 905.573 1327.38C909.398 1332.14 934.899 1329.98 939.574 1328.68C944.25 1327.38 949.35 1331.71 950.625 1330.41C951.9 1329.11 970.176 1329.98 989.727 1323.92C1005.37 1319.08 1026.28 1321.9 1034.78 1323.92C1046.68 1337.77 1060.28 1326.95 1064.96 1323.06C1068.7 1319.94 1073.31 1320.32 1075.16 1320.89C1077.56 1321.9 1082.81 1323.92 1084.51 1323.92C1086.63 1323.92 1094.71 1331.28 1097.26 1331.71C1099.3 1332.06 1101.22 1330.99 1101.93 1330.41C1107.46 1338.2 1110.86 1338.63 1119.36 1342.52C1126.16 1345.64 1143.16 1335.75 1150.81 1330.41C1158.46 1334.74 1166.96 1330.84 1174.61 1329.55C1180.73 1328.51 1184.53 1329.11 1185.66 1329.55C1191.75 1326.81 1207.85 1322.36 1223.49 1326.52C1239.13 1330.67 1251.54 1325.65 1255.79 1322.62C1270.67 1322.62 1287.24 1311.38 1291.92 1309.65C1296.59 1307.92 1307.64 1308.78 1307.64 1309.65C1307.64 1310.51 1312.32 1318.73 1313.17 1318.73C1313.85 1318.73 1314.87 1317.58 1315.29 1317C1322.09 1319.77 1341.08 1323.06 1349.72 1324.35L1391.8 1324.79C1399.96 1321.33 1414.46 1326.23 1420.7 1329.11H1426.22V1327.82C1415.6 1313.54 1457.25 1323.92 1459.37 1323.92C1461.07 1323.92 1465.18 1320.17 1467.02 1318.3L1465.32 1317.43C1464.47 1317 1463.2 1310.08 1462.35 1311.38C1461.67 1312.41 1458.67 1312.67 1457.25 1312.67C1420.7 1304.89 1424.95 1311.38 1424.95 1313.54C1424.95 1315.7 1426.22 1318.73 1424.1 1319.16C1422.4 1319.51 1407.8 1315.27 1400.72 1313.11C1398.17 1313.97 1392.31 1315.27 1389.25 1313.54C1385.42 1311.38 1350.57 1315.27 1348.87 1313.54C1347.17 1311.81 1326.34 1309.65 1321.24 1308.35C1317.16 1307.31 1315.29 1305.9 1314.87 1305.32C1314.73 1305.9 1314.19 1307.14 1313.17 1307.48C1311.89 1307.92 1309.77 1301.43 1307.64 1297.53C1305.94 1294.42 1296.17 1296.24 1291.49 1297.53C1284.69 1304.46 1257.06 1311.81 1254.94 1312.67C1252.81 1313.54 1248.56 1319.16 1240.91 1317.43C1233.26 1315.7 1208.19 1315.27 1205.64 1314.84C1203.09 1314.4 1189.49 1318.73 1184.39 1320.03C1179.29 1321.33 1183.11 1320.46 1176.74 1318.73C1170.36 1317 1166.11 1322.19 1161.43 1322.62C1157.69 1322.97 1152.79 1321.04 1150.81 1320.03C1138.06 1330.41 1133.81 1329.11 1124.46 1333.44C1115.11 1337.77 1101.93 1319.16 1101.93 1319.6C1101.93 1320.03 1097.26 1321.33 1094.71 1320.89C1092.16 1320.46 1085.36 1313.97 1084.51 1313.54C1083.66 1313.11 1083.66 1313.54 1078.13 1310.51C1073.71 1308.09 1069.77 1309.5 1068.36 1310.51C1065.24 1313.25 1057.39 1319.16 1050.93 1320.89C1042.85 1323.06 1037.33 1315.7 1034.78 1313.54C1032.23 1311.38 1019.05 1311.81 1018.2 1311.81C1008.34 1308.69 998.794 1310.51 995.252 1311.81C984.032 1315.27 959.409 1318.73 948.5 1320.03C946.375 1315.7 922.149 1322.62 912.798 1320.03C905.318 1317.95 902.598 1316.86 902.173 1316.57C889.422 1319.6 876.246 1317.87 871.996 1316.57C867.746 1315.27 858.821 1301.43 854.57 1302.29C851.17 1302.98 838.703 1296.81 832.894 1293.64C826.094 1282.39 820.144 1288.88 819.294 1288.45C818.444 1288.02 815.894 1291.48 815.044 1289.75C814.193 1288.02 809.943 1285.42 806.543 1286.29C803.143 1287.15 799.318 1287.15 798.468 1287.15C792.092 1282.83 770.841 1284.56 765.741 1284.56H757.666C754.606 1284.56 752.424 1288.59 751.716 1290.61C749.335 1286.11 741.94 1290.76 738.54 1293.64C734.12 1290.87 726.498 1292.49 723.239 1293.64C719.697 1294.51 711.084 1295.72 704.963 1293.64C697.313 1291.04 687.963 1294.94 684.987 1296.24C682.012 1297.53 669.262 1300.13 663.311 1299.7C657.361 1299.26 659.061 1295.8 656.936 1297.1C654.811 1298.4 621.234 1298.4 615.709 1297.1C611.289 1296.06 604.517 1297.53 601.683 1298.4C585.363 1303.94 571.082 1299.84 565.982 1297.1C564.622 1300.91 561.448 1302.73 560.031 1303.16C555.781 1305.75 547.281 1294.94 544.306 1291.48C541.331 1288.02 539.63 1289.31 538.78 1290.18C538.1 1290.87 535.947 1290.47 534.955 1290.18C526.88 1283.26 506.054 1293.64 496.278 1298.83C486.503 1304.02 477.153 1293.64 475.877 1293.64C474.602 1293.64 465.677 1297.53 462.702 1297.1C460.322 1296.76 446.693 1294.65 440.176 1293.64C438.759 1294.79 433.205 1295.89 422.325 1291.04C411.444 1286.2 406.174 1288.74 404.899 1290.61C399.459 1285.07 393.849 1284.56 391.723 1284.99C387.473 1283.26 376.848 1290.61 375.573 1290.61C365.372 1288.02 340.296 1302.72 339.871 1303.59Z" fill="#F6F4F0"/><path d="M-85.1492 1315.27L-103 1313.97V1303.16L-85.1492 1303.59C-80.4739 1310.51 -68.1483 1312.24 -63.8981 1312.24C-59.6479 1312.24 -54.9727 1307.05 -53.6977 1306.19C-52.4226 1305.32 -36.2718 1305.32 -29.8965 1306.19C-23.5212 1307.05 -21.3961 1312.67 -20.5461 1312.67C-19.6961 1312.67 -7.37047 1310.94 -4.82034 1310.51C-2.78024 1310.16 2.83002 1312.38 5.38014 1313.54C7.42023 1320.11 12.7472 1319.45 15.1556 1318.3C30.4563 1315.27 33.4315 1319.59 39.3818 1327.38C45.332 1335.17 48.7322 1333.87 49.1572 1333.87C55.2775 1330.06 64.4579 1327.09 68.2831 1326.08C79.3336 1324.79 79.3336 1339.93 89.9592 1341.23C93.1618 1341.62 98.6012 1336.18 101.01 1333.01C101.435 1336.03 112.06 1345.98 117.585 1342.52C122.006 1339.75 130.761 1335.31 134.586 1333.44C136.711 1340.36 143.512 1344.69 146.912 1344.69C150.312 1344.69 157.962 1337.33 157.962 1334.74C157.962 1332.14 163.913 1325.22 163.913 1326.52C163.913 1327.55 168.163 1328.68 170.288 1329.11C170.288 1329.54 171.648 1329.89 177.088 1327.81C182.189 1326.95 194.089 1337.33 197.489 1337.33C200.209 1337.33 202.873 1335.6 203.865 1334.74C208.285 1342.35 211.94 1341.08 213.215 1339.49C213.782 1338.49 216.53 1335.86 222.99 1333.44C231.066 1330.41 229.791 1341.23 231.916 1339.49C234.041 1337.76 243.816 1333.01 251.467 1330.41C259.117 1327.81 264.642 1333.44 274.843 1334.74C285.043 1336.03 296.944 1327.38 304.594 1325.22C312.245 1323.06 327.545 1329.11 336.896 1330.41C346.246 1331.71 350.497 1328.25 351.347 1329.11C352.027 1329.8 356.73 1333.73 358.997 1335.6C349.816 1342.52 318.053 1338.49 303.319 1335.6C295.499 1340.79 275.693 1342.96 266.768 1343.39C255.207 1335.43 238.716 1343.53 231.916 1348.58C228.176 1339.93 219.874 1344.11 216.19 1347.28C208.71 1353.17 205.423 1347.14 204.715 1343.39C200.974 1348.23 197.489 1347.14 196.214 1345.98C181.764 1338.63 176.663 1335.6 174.113 1337.33C171.563 1339.06 169.438 1338.63 168.163 1338.63C167.143 1338.63 164.904 1336.61 163.913 1335.6C163.204 1335.46 161.618 1335.86 160.938 1338.63C160.257 1341.4 154.704 1348.44 152.012 1351.61C145.212 1357.49 137.561 1347.43 134.586 1341.66L126.936 1345.98C118.436 1351.52 114.044 1352.04 112.91 1351.61C109.17 1351.95 103.135 1345.12 100.585 1341.66C95.0594 1349.01 84.8589 1354.64 78.4836 1341.66C72.1083 1328.68 55.1075 1341.66 53.4074 1341.66C47.2871 1345.81 44.3403 1343.39 43.632 1341.66C30.0313 1327.47 22.9476 1326.52 21.1059 1327.81C6.48519 1331.28 4.5301 1326.37 5.38014 1323.49L-5.67039 1321.33C-7.71048 1322.36 -16.4376 1323.2 -20.5461 1323.49C-27.6864 1313.8 -45.9056 1315.7 -54.1227 1317.86C-66.0232 1328.59 -79.7656 1320.6 -85.1492 1315.27Z" fill="#F6F4F0"/></svg>