<svg preserveAspectRatio="none" width="100%" height="100%" overflow="visible" style="display: block;" viewBox="0 0 1631.23 69.1785" fill="none" xmlns="http://www.w3.org/2000/svg">
<g id="Vector 4">
<path d="M17.8508 31.0551L0 29.7573V18.9431L17.8508 19.3757C22.5261 26.2974 34.8517 28.0278 39.1019 28.0278C43.3521 28.0278 48.0273 22.8366 49.3023 21.9713C50.5774 21.1061 66.7282 21.1061 73.1035 21.9713C79.4788 22.8366 81.6039 28.4604 82.4539 28.4604C83.3039 28.4604 95.6295 26.729 98.1797 26.2964C100.22 25.9503 105.83 28.1711 108.38 29.3247C110.42 35.9003 115.747 35.237 118.156 34.0834C133.456 31.0551 136.431 35.3812 142.382 43.1681C148.332 50.955 151.732 49.6572 152.157 49.6572C158.278 45.8503 167.458 42.8797 171.283 41.8703C182.334 40.5725 182.334 55.7137 192.959 57.0115C196.162 57.4027 201.601 51.9644 204.01 48.792C204.435 51.8202 215.06 61.7702 220.585 58.3093C225.006 55.5407 233.761 51.0992 237.586 49.2246C239.711 56.1463 246.512 60.4724 249.912 60.4724C253.312 60.4724 260.962 53.1181 260.962 50.5224C260.962 47.9268 266.913 41.0051 266.913 42.3029C266.913 43.3411 271.163 44.4659 273.288 44.8985C273.288 45.3311 274.648 45.6772 280.088 43.6007C285.189 42.7355 297.089 53.1181 300.489 53.1181C303.209 53.1181 305.873 51.3876 306.865 50.5224C311.285 58.1363 314.94 56.8673 316.215 55.2811C316.782 54.2717 319.53 51.6472 325.99 49.2246C334.066 46.1964 332.791 57.0115 334.916 55.2811C337.041 53.5507 346.816 48.792 354.467 46.1964C362.117 43.6007 367.642 49.2246 377.843 50.5224C388.043 51.8202 399.944 43.1681 407.594 41.0051C415.245 38.842 430.545 44.8985 439.896 46.1964C449.246 47.4942 453.497 44.0333 454.347 44.8985C455.027 45.5907 459.73 49.513 461.997 51.3876C452.816 58.3093 421.053 54.2717 406.319 51.3876C398.499 56.5789 378.693 58.742 369.768 59.1746C358.207 51.2146 341.716 59.3188 334.916 64.3658C331.176 55.7137 322.874 59.8956 319.19 63.068C311.71 68.9515 308.423 62.9238 307.715 59.1746C303.974 64.0198 300.489 62.9238 299.214 61.7702C284.764 54.4159 279.663 51.3876 277.113 53.1181C274.563 54.8485 272.438 54.4159 271.163 54.4159C270.143 54.4159 267.904 52.3971 266.913 51.3876C266.204 51.2434 264.618 51.6472 263.938 54.4159C263.257 57.1846 257.704 64.2216 255.012 67.3941C248.212 73.2775 240.561 63.2122 237.586 57.4441L229.936 61.7702C221.436 67.3076 217.044 67.8267 215.91 67.3941C212.17 67.7402 206.135 60.905 203.585 57.4441C198.059 64.7984 187.859 70.4223 181.484 57.4441C175.108 44.4659 158.107 57.4441 156.407 57.4441C150.287 61.5972 147.34 59.1746 146.632 57.4441C133.031 43.2546 125.948 42.3029 124.106 43.6007C109.485 47.0616 107.53 42.1587 108.38 39.2746L97.3296 37.1116C95.2895 38.1499 86.5624 38.9862 82.4539 39.2746C75.3136 29.5842 57.0944 31.4877 48.8773 33.6508C36.9768 44.3794 23.2344 36.3906 17.8508 31.0551Z" fill="var(--fill-0, #F6F4F0)"/>
<path d="M442.871 19.3757C442.446 20.2409 447.546 26.73 447.546 27.1626C459.447 20.2406 473.756 18.5106 479.423 18.5108C493.363 9.85871 503.649 14.9058 507.049 18.5108C520.65 11.5891 521.925 22.8369 543.176 21.5391C560.177 26.0382 574.061 23.1253 578.877 21.1065C584.998 28.4993 595.595 27.6477 600.128 26.2978C627.67 12.1083 637.672 15.4829 639.23 18.9439C647.731 14.6183 655.381 29.326 660.906 31.0564C666.432 32.7869 668.982 24.9999 669.407 24.9999C669.832 24.9999 675.357 27.163 683.857 28.8934C690.658 30.2778 706.242 26.8746 713.184 24.9999C722.364 28.1147 749.027 26.2978 761.211 24.9999C770.987 28.4608 764.186 29.326 787.987 23.7021C811.789 18.0782 806.688 25.4326 815.189 22.4043C821.989 19.9817 835.023 20.8181 840.69 21.5391C842.248 20.3855 846.045 17.9917 848.765 17.6456C851.485 17.2995 853.865 18.3666 854.716 18.9435C854.716 17.213 858.399 14.4732 860.241 13.3196C881.917 9.4261 900.618 16.3478 901.468 16.3478C902.318 16.3478 901.468 17.6456 907.843 14.6174C914.218 11.5891 918.044 18.9435 918.469 18.9435C931.219 12.4543 934.619 20.6739 937.169 22.8369C939.72 24.9999 952.045 27.5956 957.57 30.1912C963.096 32.7869 971.171 41.8716 975.846 43.602C979.586 44.9864 999.222 43.8904 1008.57 43.1694C1012.4 47.9281 1037.9 45.7651 1042.57 44.4673C1047.25 43.1694 1052.35 47.4955 1053.62 46.1977C1054.9 44.8999 1073.18 45.7651 1092.73 39.7086C1108.37 34.8634 1129.28 37.6898 1137.78 39.7086C1149.68 53.552 1163.28 42.7368 1167.96 38.8434C1171.7 35.7286 1176.31 36.1035 1178.16 36.6803C1180.56 37.6898 1185.81 39.7086 1187.51 39.7086C1189.63 39.7086 1197.71 47.0629 1200.26 47.4955C1202.3 47.8416 1204.22 46.7745 1204.93 46.1977C1210.46 53.9846 1213.86 54.4172 1222.36 58.3107C1229.16 61.4254 1246.16 51.5332 1253.81 46.1977C1261.46 50.5238 1269.96 46.6303 1277.61 45.3325C1283.73 44.2942 1287.53 44.8999 1288.66 45.3325C1294.75 42.5926 1310.85 38.1512 1326.49 42.3042C1342.13 46.4572 1354.54 41.439 1358.79 38.4108C1373.67 38.4108 1390.24 27.163 1394.92 25.4326C1399.59 23.7021 1410.64 24.5673 1410.64 25.4326C1410.64 26.2978 1415.32 34.5173 1416.17 34.5173C1416.85 34.5173 1417.87 33.3637 1418.29 32.7869C1425.09 35.5556 1444.08 38.8434 1452.72 40.1412L1494.8 40.5738C1502.96 37.1129 1517.46 42.0158 1523.7 44.8999H1529.22V43.602C1518.6 29.326 1560.25 39.7086 1562.37 39.7086C1564.07 39.7086 1568.18 35.9593 1570.02 34.0847L1568.32 33.2195C1567.47 32.7869 1566.2 25.8652 1565.35 27.163C1564.67 28.2012 1561.67 28.4608 1560.25 28.4608C1523.7 20.6739 1527.95 27.163 1527.95 29.326C1527.95 31.4891 1529.22 34.5173 1527.1 34.9499C1525.4 35.296 1510.8 31.0564 1503.72 28.8934C1501.17 29.7586 1495.31 31.0564 1492.25 29.326C1488.42 27.163 1453.57 31.0564 1451.87 29.326C1450.17 27.5956 1429.34 25.4326 1424.24 24.1347C1420.16 23.0965 1418.29 21.6833 1417.87 21.1065C1417.73 21.6833 1417.19 22.9234 1416.17 23.2695C1414.89 23.7021 1412.77 17.213 1410.64 13.3196C1408.94 10.2048 1399.17 12.0217 1394.49 13.3196C1387.69 20.2413 1360.06 27.5956 1357.94 28.4608C1355.81 29.326 1351.56 34.9499 1343.91 33.2195C1336.26 31.4891 1311.19 31.0564 1308.64 30.6238C1306.09 30.1912 1292.49 34.5173 1287.39 35.8151C1282.29 37.1129 1286.11 36.2477 1279.74 34.5173C1273.36 32.7869 1269.11 37.9782 1264.43 38.4108C1260.69 38.7568 1255.79 36.8245 1253.81 35.8151C1241.06 46.1977 1236.81 44.8999 1227.46 49.2259C1218.11 53.552 1204.93 34.9499 1204.93 35.3825C1204.93 35.8151 1200.26 37.1129 1197.71 36.6803C1195.16 36.2477 1188.36 29.7586 1187.51 29.326C1186.66 28.8934 1186.66 29.326 1181.13 26.2978C1176.71 23.8752 1172.77 25.2884 1171.36 26.2978C1168.24 29.0376 1160.39 34.9499 1153.93 36.6803C1145.85 38.8434 1140.33 31.4891 1137.78 29.326C1135.23 27.163 1122.05 27.5956 1121.2 27.5956C1111.34 24.4808 1101.79 26.2978 1098.25 27.5956C1087.03 31.0564 1062.41 34.5173 1051.5 35.8151C1049.37 31.4891 1025.15 38.4108 1015.8 35.8151C1008.32 33.7386 1005.6 32.6427 1005.17 32.3543C992.422 35.3825 979.246 33.6521 974.996 32.3543C970.746 31.0564 961.821 17.213 957.57 18.0782C954.17 18.7704 941.703 12.5989 935.894 9.42656C929.094 -1.82076 923.144 4.66742 922.294 4.23482C921.444 3.80221 918.894 7.26306 918.044 5.53264C917.193 3.80221 912.943 1.20657 909.543 2.07178C906.143 2.937 902.318 2.93745 901.468 2.93745C895.092 -1.38861 873.841 0.341813 868.741 0.341813H860.666C857.606 0.341813 855.424 4.37948 854.716 6.39831C852.335 1.8992 844.94 6.54251 841.54 9.42656C837.12 6.65787 829.498 8.27294 826.239 9.42656C822.697 10.2918 814.084 11.5031 807.963 9.42656C800.313 6.83092 790.963 10.7244 787.987 12.0222C785.012 13.32 772.262 15.9157 766.311 15.4831C760.361 15.0504 762.061 11.5896 759.936 12.8874C757.811 14.1852 724.234 14.1852 718.709 12.8874C714.289 11.8492 707.517 13.32 704.683 14.1852C688.363 19.7226 674.082 15.6273 668.982 12.8874C667.622 16.6944 664.448 18.5113 663.031 18.9439C658.781 21.5396 650.281 10.7244 647.306 7.26352C644.331 3.80267 642.63 5.10049 641.78 5.9657C641.1 6.65787 638.947 6.25411 637.955 5.9657C629.88 -0.956008 609.054 9.42656 599.278 14.6178C589.503 19.8091 580.153 9.42656 578.877 9.42656C577.602 9.42656 568.677 13.32 565.702 12.8874C563.322 12.5413 549.693 10.436 543.176 9.42656C541.759 10.5802 536.205 11.6761 525.325 6.83092C514.444 1.98572 509.174 4.52314 507.899 6.39749C502.459 0.859471 496.849 0.341299 494.723 0.774465C490.473 -0.955962 479.848 6.39749 478.573 6.39749C468.372 3.80185 443.296 18.5105 442.871 19.3757Z" fill="var(--fill-0, #F6F4F0)"/>
<path d="M1570.02 22.8369C1570.87 24.1347 1569.17 24.1347 1568.75 24.5673H1583.63C1587.17 25.8652 1595.02 27.5956 1598.08 24.1347C1601.14 20.6739 1604.17 22.9811 1605.3 24.5673C1606.32 23.5291 1623.01 22.4043 1631.23 21.9717V9.85871C1629.1 8.56089 1605.3 13.3196 1604.45 12.0217C1603.77 10.9835 1602.47 10.4355 1601.9 10.2913C1600.48 11.3007 1596.97 13.4926 1594.25 14.1848C1590.85 15.05 1586.6 14.1848 1584.48 12.887C1582.35 11.5891 1567.05 12.887 1565.77 14.1848C1564.5 15.4826 1567.05 17.213 1568.75 21.1065C1570.45 24.9999 1569.17 21.5391 1570.02 22.8369Z" fill="var(--fill-0, #F6F4F0)"/>
</g>
</svg>
